<mxfile host="app.diagrams.net" modified="2021-09-26T10:45:58.283Z" agent="5.0 (Windows)" etag="VP3AsCE1TEak-IIxkhvY" version="15.1.4" type="github">
  <diagram id="qhPI424aoEz1J4MwQjQU" name="Page-1">
    <mxGraphModel dx="1422" dy="752" grid="1" gridSize="10" guides="1" tooltips="1" connect="1" arrows="1" fold="1" page="1" pageScale="1" pageWidth="827" pageHeight="1169" math="0" shadow="0">
      <root>
        <mxCell id="0" />
        <mxCell id="1" parent="0" />
        <mxCell id="eC9CMltOu7i4w-fyhFjE-1" value="" style="ellipse;whiteSpace=wrap;html=1;" vertex="1" parent="1">
          <mxGeometry x="570" y="50" width="120" height="80" as="geometry" />
        </mxCell>
      </root>
    </mxGraphModel>
  </diagram>
</mxfile>
